<svg width="340" height="200" viewBox="0 0 340 200" fill="none" xmlns="http://www.w3.org/2000/svg">
<path d="M339.045 0L243.605 52.5809H281.824C262.083 95.0925 266.184 144.912 292.554 183.568C281.175 114.979 309.045 48.5666 339.045 0Z" fill="#E1251B"/>
<path d="M13.0855 199.702H16.2428V184.626H13.0855V199.702ZM12.6797 180.123C12.6797 179.078 13.5238 178.185 14.6819 178.185C15.8074 178.185 16.6841 179.078 16.6841 180.123C16.6841 181.175 15.8074 182.068 14.6819 182.068C13.5238 182.068 12.6797 181.175 12.6797 180.123Z" fill="white"/>
<path d="M19.3535 184.493H22.3881V186.081C23.2962 184.991 24.5117 184.242 26.121 184.242C26.5434 184.242 27.0291 184.336 27.3624 184.431V187.263C26.9975 187.168 26.4831 187.045 25.8164 187.045C24.1468 187.045 23.2071 187.637 22.4197 188.321V199.708H19.3535V184.493Z" fill="white"/>
<path d="M28.6934 198.878V196.427C29.6677 196.856 31.403 197.315 32.801 197.315C34.7496 197.315 35.6922 196.671 35.6922 195.293C35.6922 194.037 34.7496 193.701 32.9221 193.057C30.7313 192.416 28.7222 191.253 28.7222 188.558C28.7222 185.588 30.8841 184.239 34.0491 184.239C35.6028 184.239 37.0614 184.576 37.7936 184.88V187.363C37.0009 187.027 35.6317 186.626 34.1702 186.626C32.4666 186.626 31.6451 187.238 31.6451 188.343C31.6451 189.446 32.4061 189.875 34.323 190.487C36.3927 191.16 38.7045 192.14 38.7045 195.11C38.7045 197.988 36.5137 199.705 33.2593 199.705C31.4923 199.705 29.7599 199.365 28.6934 198.878Z" fill="white"/>
<path d="M41.5206 195.356V186.555H39.3848V184.254H41.5538L42.1278 180.21H44.7439V184.254H48.3146V186.555H44.7439V194.891C44.7439 196.478 45.3148 197.159 46.7528 197.159C47.5473 197.159 48.2512 196.973 48.7285 196.788V199.274C48.1545 199.459 47.2301 199.71 46.0187 199.71C43.0491 199.71 41.5206 198.529 41.5206 195.356Z" fill="white"/>
<path d="M68.1658 192.502L66.2866 186.87C65.8443 185.557 65.3129 183.959 65.0962 183.022H65.0309C64.7815 183.959 64.2471 185.557 63.8078 186.87L61.8336 192.502H68.1658ZM63.3061 180.203H67.0704L74.0884 199.703H70.517L69.0119 195.164H60.9578L59.3903 199.703H56.0684L63.3061 180.203Z" fill="white"/>
<path d="M84.8539 191.819C84.8539 188.786 83.9481 186.502 81.1018 186.502C80.0728 186.502 79.0753 186.879 78.4676 187.412V196.855C79.104 197.074 79.9811 197.199 80.798 197.199C83.6414 197.199 84.8539 194.885 84.8539 191.819ZM75.4121 198.668V178.185H78.4676V185.344C79.0151 184.722 80.2849 183.907 82.042 183.907C86.3358 183.907 88.0929 187.379 88.0929 191.662C88.0929 196.073 85.5217 199.702 80.7378 199.702C78.7399 199.702 76.7736 199.231 75.4121 198.668Z" fill="white"/>
<path d="M90.1055 194.326V184.242H93.155V193.827C93.155 195.944 93.7932 197.188 96.0197 197.188C97.2095 197.188 98.3069 196.627 99.0404 196.129V184.242H102.119V199.46H99.0693V198.246C98.3358 198.835 96.9063 199.708 94.9541 199.708C91.327 199.708 90.1055 197.406 90.1055 194.326Z" fill="white"/>
<path d="M118.444 197.018C123.489 197.018 124.726 193.73 124.726 189.976C124.726 186.217 123.55 182.837 118.629 182.837H116V197.018H118.444ZM112.781 180.21H119.001C125.626 180.21 128.132 184.903 128.132 189.976C128.132 194.764 125.719 199.71 118.907 199.71H112.781V180.21Z" fill="white"/>
<path d="M130.811 178.185H133.828V185.234C134.591 184.654 135.994 183.794 137.946 183.794C141.573 183.794 142.824 186.062 142.824 189.099V199.029H139.743V189.587C139.743 187.505 139.133 186.277 136.907 186.277C135.688 186.277 134.591 186.828 133.892 187.319V199.029H130.811V178.185Z" fill="white"/>
<path d="M153.286 196.369V192.88C153.064 192.88 152.496 192.845 152.087 192.845C149.469 192.845 148.046 193.553 148.046 195.235C148.046 196.616 148.994 197.378 150.572 197.378C151.74 197.378 152.718 196.92 153.286 196.369ZM153.698 198.022C153.002 198.881 151.486 199.705 149.657 199.705C146.752 199.705 144.83 198.115 144.83 195.479C144.83 192.387 147.511 190.887 151.773 190.887C152.275 190.887 152.876 190.919 153.286 190.948V189.753C153.286 187.61 152.401 186.722 150.129 186.722C148.521 186.722 147.164 187.18 146.247 187.581V185.069C147.323 184.64 148.898 184.239 150.697 184.239C154.329 184.239 156.475 185.742 156.475 189.234V196.033C156.475 196.981 156.914 197.286 157.607 197.286C157.769 197.286 157.987 197.257 158.178 197.225V199.368C157.799 199.525 157.294 199.705 156.376 199.705C155.022 199.705 154.107 199.064 153.698 198.022Z" fill="white"/>
<path d="M168.956 191.819C168.956 188.786 168.048 186.502 165.204 186.502C164.172 186.502 163.178 186.879 162.57 187.412V196.855C163.206 197.074 164.084 197.199 164.9 197.199C167.744 197.199 168.956 194.885 168.956 191.819ZM159.512 198.668V178.185H162.57V185.344C163.115 184.722 164.385 183.907 166.142 183.907C170.438 183.907 172.192 187.379 172.192 191.662C172.192 196.073 169.621 199.702 164.84 199.702C162.842 199.702 160.876 199.231 159.512 198.668Z" fill="white"/>
<path d="M174.603 199.702H177.763V184.626H174.603V199.702ZM174.197 180.123C174.197 179.078 175.041 178.185 176.199 178.185C177.325 178.185 178.202 179.078 178.202 180.123C178.202 181.175 177.325 182.068 176.199 182.068C175.041 182.068 174.197 181.175 174.197 180.123Z" fill="white"/>
<path d="M195.223 197.113C197.515 197.113 198.723 196.019 198.723 193.983C198.723 191.887 197.609 190.728 195.285 190.728H192.093V197.113H195.223ZM195.13 188.38C197.362 188.38 198.38 187.348 198.38 185.501C198.38 183.904 197.391 182.81 195.162 182.81H192.093V188.38H195.13ZM188.875 180.21H195.502C199.498 180.21 201.604 182.184 201.604 185.158C201.604 187.473 200.114 189.005 198.474 189.447V189.506C200.58 189.945 202.223 191.478 202.223 194.077C202.223 197.489 199.744 199.71 195.687 199.71H188.875V180.21Z" fill="white"/>
<path d="M212.017 196.369V192.88C211.796 192.88 211.228 192.845 210.819 192.845C208.198 192.845 206.779 193.553 206.779 195.235C206.779 196.616 207.726 197.378 209.304 197.378C210.472 197.378 211.449 196.92 212.017 196.369ZM212.429 198.022C211.733 198.881 210.218 199.705 208.389 199.705C205.485 199.705 203.561 198.115 203.561 195.479C203.561 192.387 206.244 190.887 210.505 190.887C211.007 190.887 211.608 190.919 212.017 190.948V189.753C212.017 187.61 211.133 186.722 208.862 186.722C207.254 186.722 205.897 187.18 204.98 187.581V185.069C206.056 184.64 207.633 184.239 209.429 184.239C213.057 184.239 215.202 185.742 215.202 189.234V196.033C215.202 196.981 215.645 197.286 216.338 197.286C216.496 197.286 216.717 197.257 216.909 197.225V199.368C216.529 199.525 216.024 199.705 215.107 199.705C213.753 199.705 212.836 199.064 212.429 198.022Z" fill="white"/>
<path d="M218.244 184.493H221.262V185.707C222.024 185.114 223.428 184.242 225.38 184.242C229.007 184.242 230.257 186.547 230.257 189.626V199.708H227.179V190.124C227.179 188.011 226.567 186.765 224.343 186.765C223.122 186.765 222.024 187.325 221.325 187.823V199.708H218.244V184.493Z" fill="white"/>
<path d="M240.933 197.562L236.682 191.806V199.577H233.596V178.185H236.682V190.924L241.972 184.194H245.366L239.772 191.112L243.686 196.272C244.173 196.934 244.57 197.217 245.244 197.217C245.305 197.217 245.366 197.217 245.609 197.184V199.577C245.305 199.669 244.969 199.702 244.694 199.702C243.226 199.702 242.158 199.261 240.933 197.562Z" fill="white"/>
<path d="M0 180.203H11.3459V182.895H3.27751V188.247H10.4952V190.785H3.27751V199.703H0V180.203Z" fill="white"/>
<path d="M168.85 52.4531H209.756C233.06 52.4531 245.656 63.5735 245.656 80.0808C245.656 93.4599 237.548 101.628 228.742 104.058V104.41C240.308 107.015 248.939 115.178 248.939 129.256C248.939 149.065 234.093 160.711 210.792 160.711H168.85V52.4531ZM206.649 96.591C217.351 96.591 221.839 91.724 221.839 83.3823C221.839 75.9129 217.182 71.0429 206.821 71.0429H192.498V96.591H206.649ZM207.165 142.115C217.695 142.115 223.391 137.251 223.391 127.693C223.391 117.962 218.04 112.922 207.34 112.922H192.498V142.115H207.165Z" fill="white"/>
<path d="M95.7733 52.4531H122.173L161.514 160.711H135.806L128.905 139.163H86.9734L79.7252 160.711H55.3965L95.7733 52.4531ZM122.689 120.048L113.72 92.2439C111.646 85.8143 109.578 79.5609 108.371 74.5235H108.027C106.647 79.3876 104.573 85.9905 102.502 92.2439L93.1861 120.048H122.689Z" fill="white"/>
<path d="M0 52.4531H66.0734V72.0886H23.6989V97.2842H61.4067V115.354H23.6989V160.711H0V52.4531Z" fill="white"/>
<path d="M25.733 26.0832H22.3633C21.431 26.0832 20.6332 25.7485 19.9727 25.079C19.3093 24.4066 18.979 23.6039 18.979 22.6679V20.544C18.979 19.5991 19.3093 18.7963 19.9727 18.1358C20.6332 17.4633 21.431 17.1286 22.3633 17.1286C23.2868 17.1286 24.0817 17.4633 24.7422 18.1358C25.4027 18.7963 25.733 19.5991 25.733 20.544V26.0832ZM22.3633 14.125C20.6127 14.125 19.1193 14.7559 17.8773 16.0149C16.6352 17.2619 16.0156 18.7726 16.0156 20.544V22.6679C16.0156 24.4392 16.6352 25.9529 17.8773 27.2148C19.1193 28.4618 20.6127 29.0868 22.3633 29.0868H25.733C25.6891 29.8748 25.3764 30.5531 24.7948 31.113C24.2162 31.6698 23.5352 31.9512 22.7578 31.9512H19.4145C19.169 31.9512 19.0463 32.0786 19.0463 32.3363V34.5816C19.0463 34.8393 19.169 34.9697 19.4145 34.9697H22.7578C24.3711 34.9697 25.7622 34.3713 26.9283 33.1776C28.1089 31.9927 28.6964 30.5827 28.6964 28.9476V20.544C28.6964 18.7726 28.0797 17.2619 26.8493 16.0149C25.6073 14.7559 24.111 14.125 22.3633 14.125Z" fill="white"/>
<path d="M45.0237 7.39258H42.8359C42.595 7.39258 42.4775 7.51427 42.4775 7.75766V23.1058C42.4775 23.8968 42.3083 24.4618 41.97 24.8008C41.6316 25.1253 41.0725 25.2905 40.2897 25.2992H31.7163C31.4956 25.2992 31.3809 25.4267 31.3809 25.6788V27.8751C31.3809 28.1156 31.5042 28.2373 31.7421 28.2373H40.2897C41.8811 28.2373 43.1312 27.7795 44.0373 26.8638C44.9434 25.9569 45.3964 24.6994 45.3964 23.0913V7.75766C45.3964 7.51427 45.2731 7.39258 45.0237 7.39258Z" fill="white"/>
<path d="M35.7106 10.0928C35.4903 10.0928 35.3828 10.2185 35.3828 10.4699V24.5117C35.3828 24.7631 35.4903 24.8858 35.7106 24.8858H37.7115C37.9397 24.8858 38.0524 24.7631 38.0524 24.5117V10.4699C38.0524 10.2185 37.9397 10.0928 37.7115 10.0928H35.7106Z" fill="white"/>
<path d="M34.3359 8.06384H39.7518C39.9468 8.06384 40.0457 7.96789 40.0457 7.77315V6.92082C40.0457 6.73172 39.9468 6.63295 39.7518 6.63295H36.6379V5.03271C36.6379 4.7787 36.731 4.56421 36.9202 4.38923C37.1035 4.21425 37.3218 4.12676 37.5837 4.12676C37.9999 4.12676 38.2821 4.31021 38.4364 4.6771L38.611 5.07222C38.6488 5.13996 38.7012 5.19358 38.7623 5.23027C38.806 5.2472 38.8467 5.25567 38.8846 5.25567C38.9282 5.25567 38.969 5.2472 39.0039 5.23027L39.8187 4.88595C39.9439 4.82668 40.0079 4.74766 40.0079 4.6517C40.0079 4.60655 39.9963 4.56421 39.9788 4.51905L39.8042 4.12676C39.388 3.16436 38.6488 2.68457 37.5837 2.68457C36.9173 2.68457 36.3439 2.916 35.8638 3.37885C35.3952 3.83324 35.1624 4.38641 35.1624 5.03271V6.63295H34.3359C34.138 6.63295 34.0391 6.73172 34.0391 6.92082V7.77315C34.0391 7.96789 34.138 8.06384 34.3359 8.06384Z" fill="white"/>
<path d="M51.0648 7.39258H49.0672C48.8379 7.39258 48.7246 7.52007 48.7246 7.76925V27.8751C48.7246 28.1156 48.8379 28.2373 49.0672 28.2373H51.0648C51.2862 28.2373 51.3942 28.1156 51.3942 27.8751V7.76925C51.3942 7.52007 51.2862 7.39258 51.0648 7.39258Z" fill="white"/>
<path d="M73.6167 34.9639H71.756C71.5237 34.9639 71.4062 35.0768 71.4062 35.3028V37.2904C71.4062 37.5244 71.5237 37.6401 71.756 37.6401H73.6167C73.841 37.6401 73.9531 37.5244 73.9531 37.2904V35.3028C73.9531 35.0768 73.841 34.9639 73.6167 34.9639Z" fill="white"/>
<path d="M68.9315 34.9639H67.0707C66.8438 34.9639 66.7344 35.0768 66.7344 35.3028V37.2904C66.7344 37.5244 66.8438 37.6401 67.0707 37.6401H68.9315C69.1557 37.6401 69.2652 37.5244 69.2652 37.2904V35.3028C69.2652 35.0768 69.1557 34.9639 68.9315 34.9639Z" fill="white"/>
<path d="M110.988 31.6094H109.114C108.889 31.6094 108.777 31.7223 108.777 31.9483V33.9359C108.777 34.1699 108.889 34.2856 109.114 34.2856H110.988C111.212 34.2856 111.324 34.1699 111.324 33.9359V31.9483C111.324 31.7223 111.212 31.6094 110.988 31.6094Z" fill="white"/>
<path d="M131.211 23.4191C131.211 24.2363 131.04 24.8136 130.697 25.1541C130.363 25.5034 129.797 25.6811 128.995 25.69H120.89V20.858C121.791 19.8129 122.996 18.8655 124.504 18.0128C126.011 17.166 127.191 16.7396 128.036 16.7396C129.28 16.7396 130.166 17.2548 130.697 18.2822C131.04 18.9424 131.211 19.7507 131.211 20.707V23.4191ZM128.036 13.7256C126.075 13.7256 123.69 14.827 120.89 17.0298V7.77747C120.89 7.51989 120.765 7.39258 120.512 7.39258H118.296C118.052 7.39258 117.933 7.51989 117.933 7.77747V25.69H115.533H114.589H113.494C112.837 25.69 112.404 25.5952 112.198 25.3998C112.134 25.308 112.102 25.1807 112.102 25.0179V14.676C112.102 14.4273 111.977 14.303 111.725 14.303H109.508C109.273 14.303 109.157 14.4273 109.157 14.676V24.6448C109.157 25.0386 109.081 25.314 108.927 25.4709C108.773 25.6189 108.523 25.69 108.172 25.69H104.32H88.1101H85.4898V18.8891C85.4898 17.465 84.993 16.2511 84.0024 15.2415C83.0205 14.2289 81.8266 13.7256 80.4235 13.7256C79.0262 13.7256 77.838 14.2289 76.8562 15.2415C75.8656 16.2511 75.3717 17.465 75.3717 18.8891V29.2725H67.1971C66.2442 29.2725 65.4134 28.9231 64.7104 28.2244C64.0277 27.5256 63.6849 26.6818 63.6849 25.69C63.6849 24.9912 63.8651 24.3458 64.2253 23.7477C64.5855 23.1437 65.0677 22.6878 65.669 22.3858L66.6596 21.8617C66.8107 21.7907 66.8862 21.693 66.8862 21.5745C66.8862 21.5094 66.863 21.4413 66.8223 21.3673L65.8201 19.3569C65.7765 19.2652 65.7039 19.2 65.6051 19.1645C65.5674 19.1467 65.5267 19.1379 65.4831 19.1379C65.4279 19.1379 65.3756 19.1556 65.3205 19.1911L64.3328 19.7004C63.2434 20.2718 62.369 21.0979 61.7125 22.1815C61.0646 23.271 60.7422 24.4435 60.7422 25.69C60.7422 27.5168 61.3726 29.0741 62.6304 30.3591C63.8912 31.6352 65.3873 32.2717 67.1157 32.2717H76.8445C77.2483 32.2717 77.594 32.1266 77.8845 31.8306C78.1721 31.5374 78.3174 31.1822 78.3174 30.7706V18.8891C78.3174 18.2911 78.5236 17.7818 78.939 17.3614C79.3515 16.938 79.8454 16.7278 80.4235 16.7278C81.0103 16.7278 81.507 16.938 81.9225 17.3614C82.3379 17.7818 82.5441 18.2911 82.5441 18.8891V27.1911C82.5441 27.6145 82.6894 27.9668 82.977 28.251C83.2646 28.5471 83.6103 28.6922 84.017 28.6922H88.1101H104.32H108.157C109.264 28.6922 110.171 28.3665 110.874 27.7151C111.638 28.3665 112.692 28.6922 114.034 28.6922H114.589H115.533H128.995C130.616 28.6922 131.882 28.2244 132.792 27.2888C133.701 26.3621 134.157 25.0712 134.157 23.4191V20.707C134.157 18.6227 133.593 16.938 132.466 15.6531C131.342 14.3681 129.863 13.7256 128.036 13.7256Z" fill="white"/>
<path d="M125.811 11.4184H127.672C127.904 11.4184 128.021 11.3054 128.021 11.0795V9.09184C128.021 8.85784 127.904 8.74219 127.672 8.74219H125.811C125.587 8.74219 125.475 8.85784 125.475 9.09184V11.0795C125.475 11.3054 125.587 11.4184 125.811 11.4184Z" fill="white"/>
<path d="M146.49 26.0832H143.135C142.215 26.0832 141.424 25.7485 140.766 25.079C140.106 24.4066 139.777 23.6039 139.777 22.6679V20.544C139.777 19.5991 140.106 18.7963 140.766 18.1358C141.424 17.4633 142.215 17.1286 143.135 17.1286C144.063 17.1286 144.854 17.4633 145.5 18.1358C146.161 18.7963 146.49 19.5991 146.49 20.544V26.0832ZM169.83 14.6908H167.613C167.368 14.6908 167.246 14.8152 167.246 15.064V25.0346C167.246 25.4315 167.17 25.707 167.016 25.8611C166.873 26.0092 166.6 26.0832 166.204 26.0832H162.645H152.08H149.455V20.544C149.455 18.7726 148.835 17.2619 147.601 16.0149C146.362 14.7559 144.875 14.125 143.135 14.125C141.392 14.125 139.908 14.7559 138.68 16.0149C137.446 17.2619 136.826 18.7726 136.826 20.544V22.6679C136.826 24.4392 137.446 25.9529 138.68 27.2148C139.908 28.4618 141.392 29.0868 143.135 29.0868H146.49C146.443 29.8748 146.138 30.5531 145.57 31.113C144.983 31.6698 144.307 31.9512 143.539 31.9512H140.199C139.954 31.9512 139.832 32.0786 139.832 32.3363V34.5816C139.832 34.8393 139.954 34.9697 140.199 34.9697H143.539C145.111 34.9697 146.475 34.3891 147.639 33.2339C148.803 32.0757 149.408 30.6923 149.455 29.0868H152.08H162.645H166.204C167.412 29.0868 168.384 28.7225 169.114 27.9968C169.836 27.2444 170.197 26.258 170.197 25.0346V15.064C170.197 14.8152 170.074 14.6908 169.83 14.6908Z" fill="white"/>
<path d="M167.728 31.6094H165.867C165.635 31.6094 165.518 31.7223 165.518 31.9483V33.9359C165.518 34.1699 165.635 34.2856 165.867 34.2856H167.728C167.952 34.2856 168.064 34.1699 168.064 33.9359V31.9483C168.064 31.7223 167.952 31.6094 167.728 31.6094Z" fill="white"/>
<path d="M177.911 3.93779H174.807V2.33708C174.807 2.0812 174.897 1.86796 175.079 1.68884C175.258 1.51256 175.483 1.42727 175.747 1.42727C176.154 1.42727 176.435 1.60923 176.59 1.98169L176.766 2.37689C176.822 2.50199 176.904 2.56169 177.012 2.56169C177.059 2.56169 177.103 2.55316 177.15 2.53611L177.978 2.2063C178.052 2.18071 178.101 2.12385 178.131 2.03571C178.145 1.99875 178.157 1.96463 178.157 1.92767C178.157 1.89355 178.145 1.85659 178.131 1.82247L177.967 1.42727C177.548 0.474809 176.807 0 175.747 0C175.073 0 174.502 0.227453 174.031 0.685203C173.556 1.14295 173.322 1.69453 173.322 2.33708V3.93779H172.493C172.291 3.93779 172.191 4.03445 172.191 4.23063V5.08927C172.191 5.2826 172.291 5.37927 172.493 5.37927H177.911C178.101 5.37927 178.198 5.2826 178.198 5.08927V4.23063C178.198 4.03445 178.101 3.93779 177.911 3.93779Z" fill="white"/>
<path d="M175.862 7.39258H173.87C173.64 7.39258 173.523 7.51427 173.523 7.75766V27.8751C173.523 28.1156 173.64 28.2373 173.87 28.2373H175.862C176.085 28.2373 176.193 28.1156 176.193 27.8751V7.75766C176.193 7.51427 176.085 7.39258 175.862 7.39258Z" fill="white"/>
<path d="M193.174 18.1556H198.601C198.787 18.1556 198.884 18.0597 198.884 17.8649V17.0013C198.884 16.8094 198.787 16.7106 198.601 16.7106H195.492V15.1245C195.492 14.8705 195.583 14.6504 195.764 14.4669C195.947 14.2919 196.166 14.2044 196.428 14.2044C196.854 14.2044 197.137 14.3879 197.283 14.7548L197.458 15.164C197.513 15.2769 197.598 15.3334 197.717 15.3334C197.761 15.3334 197.814 15.3249 197.866 15.308L198.68 14.9777C198.732 14.9523 198.784 14.9015 198.828 14.8225C198.84 14.7887 198.843 14.752 198.843 14.7181C198.843 14.6729 198.84 14.6334 198.828 14.5967L198.653 14.2044C198.236 13.2505 197.496 12.7764 196.428 12.7764C195.761 12.7764 195.189 13.0021 194.72 13.4565C194.25 13.9194 194.017 14.4782 194.017 15.1245V16.7106H193.174C192.976 16.7106 192.877 16.8094 192.877 17.0013V17.8649C192.877 18.0597 192.976 18.1556 193.174 18.1556Z" fill="white"/>
<path d="M232.59 11.4076H234.467C234.689 11.4076 234.801 11.2947 234.801 11.0687V9.08108C234.801 8.85515 234.689 8.74219 234.467 8.74219H232.59C232.366 8.74219 232.254 8.85515 232.254 9.08108V11.0687C232.254 11.2947 232.366 11.4076 232.59 11.4076Z" fill="white"/>
<path d="M245.237 14.1583H243.023C242.783 14.1583 242.661 14.28 242.661 14.5233V24.2793C242.661 24.6646 242.585 24.9341 242.431 25.0877C242.286 25.2296 242.019 25.3021 241.622 25.3021H238.207H237.264H236.103C235.474 25.3021 235.067 25.2036 234.888 25.0065C234.806 24.9341 234.766 24.8066 234.766 24.627V14.5089C234.766 14.2568 234.644 14.1322 234.403 14.1322H232.189C231.948 14.1322 231.827 14.2568 231.827 14.5089V24.2503C231.827 24.6559 231.751 24.9254 231.609 25.0587C231.458 25.2123 231.206 25.2934 230.855 25.3021H208.673H207.727H206.569C205.928 25.3021 205.519 25.2036 205.339 25.0065C205.266 24.9515 205.231 24.8269 205.231 24.627V7.75766C205.231 7.51717 205.11 7.39258 204.866 7.39258H202.655C202.402 7.39258 202.275 7.51717 202.275 7.75766V24.2503C202.275 24.6646 202.205 24.937 202.06 25.0732C201.906 25.2267 201.651 25.3021 201.291 25.3021H191.969C191.005 25.2934 190.181 24.9515 189.497 24.2793C188.815 23.5868 188.475 22.761 188.475 21.799C188.475 21.1239 188.652 20.4893 189.012 19.8982C189.372 19.3158 189.854 18.8696 190.457 18.5625L191.444 18.0525C191.586 17.9801 191.658 17.8874 191.658 17.7686C191.658 17.7077 191.641 17.6411 191.606 17.5686L190.605 15.6012C190.55 15.5027 190.48 15.439 190.39 15.4129C190.353 15.3926 190.312 15.3839 190.268 15.3839C190.213 15.3839 190.161 15.4042 190.106 15.439L189.108 15.9373C188.02 16.4937 187.152 17.3021 186.502 18.3625C185.858 19.423 185.533 20.5676 185.533 21.799C185.533 23.5868 186.163 25.1079 187.419 26.3655C188.681 27.6143 190.196 28.2373 191.969 28.2373H201.251C202.373 28.2373 203.293 27.9156 204.004 27.2695C204.767 27.9156 205.826 28.2373 207.175 28.2373H207.727H208.673H230.704H230.799C231.925 28.2373 232.842 27.9156 233.553 27.2695C234.316 27.9156 235.369 28.2373 236.71 28.2373H237.264H238.207H241.622C242.826 28.2373 243.795 27.8838 244.523 27.1739C245.243 26.4379 245.6 25.473 245.6 24.2793V14.5233C245.6 14.28 245.481 14.1583 245.237 14.1583Z" fill="white"/>
<path d="M12.3099 7.39258H10.1475C9.90211 7.39258 9.77659 7.51671 9.77659 7.76497V27.0465C9.77659 28.0366 9.43995 28.8789 8.76669 29.5764C8.09343 30.2709 7.28608 30.6197 6.33895 30.6197C5.39467 30.6197 4.58447 30.2709 3.91121 29.5764C3.23224 28.8789 2.8899 28.0366 2.8899 27.0465V19.9415C2.8899 19.6844 2.77579 19.5544 2.54756 19.5544H0.370866C0.122671 19.5544 0 19.6844 0 19.9415V27.0465C0 28.8612 0.616207 30.4098 1.85718 31.6925C3.0953 32.9752 4.59017 33.6165 6.33895 33.6165C8.08202 33.6165 9.57689 32.9752 10.8236 31.6925C12.0617 30.4098 12.6807 28.8612 12.6807 27.0465V7.76497C12.6807 7.51671 12.5581 7.39258 12.3099 7.39258Z" fill="white"/>
<path d="M243.14 31.6094H241.279C241.047 31.6094 240.93 31.7223 240.93 31.9483V33.9359C240.93 34.1699 241.047 34.2856 241.279 34.2856H243.14C243.362 34.2856 243.477 34.1699 243.477 33.9359V31.9483C243.477 31.7223 243.362 31.6094 243.14 31.6094Z" fill="white"/>
</svg>
